<?xml version="1.0" encoding="UTF-8"?>
<svg width="205px" height="54px" viewBox="0 0 205 54" version="1.1" xmlns="http://www.w3.org/2000/svg" xmlns:xlink="http://www.w3.org/1999/xlink">
    <title>_Foundations/Logos/Skylark Logo H Text</title>
    <defs>
        <linearGradient x1="50%" y1="24.1739909%" x2="50%" y2="74.5985243%" id="linearGradient-1">
            <stop stop-color="#226EFF" offset="0%"></stop>
            <stop stop-color="#0D5AF1" offset="100%"></stop>
        </linearGradient>
        <linearGradient x1="50%" y1="50%" x2="0%" y2="100%" id="linearGradient-2">
            <stop stop-color="#000000" stop-opacity="0" offset="0%"></stop>
            <stop stop-color="#000000" offset="100%"></stop>
        </linearGradient>
    </defs>
    <g id="_Foundations/Logos/Skylark-Logo-H-Text" stroke="none" stroke-width="1" fill="none" fill-rule="evenodd">
        <path d="M93.856,39.32 C95.5626667,39.32 97.0933333,39.064 98.448,38.552 C99.8026667,38.04 100.864,37.2933333 101.632,36.312 C102.4,35.3306667 102.784,34.168 102.784,32.824 C102.784,30.968 102.16,29.528 100.912,28.504 C99.664,27.48 97.5786667,26.7013333 94.656,26.168 C93.1413333,25.8906667 92.0693333,25.5866667 91.44,25.256 C90.8106667,24.9253333 90.496,24.4933333 90.496,23.96 C90.496,23.32 90.7946667,22.808 91.392,22.424 C91.9893333,22.04 92.8426667,21.848 93.952,21.848 C95.2746667,21.848 96.4106667,22.0986667 97.36,22.6 C98.3093333,23.1013333 99.136,23.8853333 99.84,24.952 L99.84,24.952 L102.944,21.368 C101.728,20.024 100.410667,19.0533333 98.992,18.456 C97.5733333,17.8586667 95.8613333,17.56 93.856,17.56 C91.9786667,17.56 90.352,17.8533333 88.976,18.44 C87.6,19.0266667 86.5546667,19.8426667 85.84,20.888 C85.1253333,21.9333333 84.768,23.1173333 84.768,24.44 C84.768,25.7626667 85.0933333,26.8506667 85.744,27.704 C86.3946667,28.5573333 87.312,29.2346667 88.496,29.736 C89.68,30.2373333 91.1786667,30.6693333 92.992,31.032 C94.464,31.3093333 95.5146667,31.6026667 96.144,31.912 C96.7733333,32.2213333 97.088,32.6213333 97.088,33.112 C97.088,33.7306667 96.7946667,34.2053333 96.208,34.536 C95.6213333,34.8666667 94.7413333,35.032 93.568,35.032 C92.096,35.032 90.8373333,34.7973333 89.792,34.328 C88.7466667,33.8586667 87.808,33.048 86.976,31.896 L86.976,31.896 L84.16,35.736 C85.248,36.952 86.5386667,37.8533333 88.032,38.44 C89.5253333,39.0266667 91.4666667,39.32 93.856,39.32 Z M111.264,39 L111.264,35.32 L113.856,32.44 L117.728,39 L123.744,39 L117.504,29.272 L123.392,23 L117.376,23 L111.264,29.72 L111.264,16.216 L105.824,16.216 L105.824,39 L111.264,39 Z M128.224,45.88 C129.589333,45.88 130.752,45.6613333 131.712,45.224 C132.672,44.7866667 133.504,44.0666667 134.208,43.064 C134.912,42.0613333 135.562667,40.7066667 136.16,39 L136.16,39 L142.016,23 L136.576,23 L134.112,31.992 L133.248,35.512 L132.48,32.12 L130.016,23 L124.032,23 L128.8,35 L130.656,39.352 L130.272,40.344 C130.037333,40.92 129.728,41.32 129.344,41.544 C128.96,41.768 128.437333,41.88 127.776,41.88 C127.114667,41.88 126.576,41.8213333 126.16,41.704 C125.744,41.5866667 125.365333,41.368 125.024,41.048 L125.024,41.048 L123.872,44.696 C124.96,45.4853333 126.410667,45.88 128.224,45.88 Z M148.768,39.32 C149.365333,39.32 149.973333,39.2453333 150.592,39.096 C151.210667,38.9466667 151.712,38.7546667 152.096,38.52 L152.096,38.52 L152.448,35.16 C151.872,35.352 151.328,35.448 150.816,35.448 C150.261333,35.448 149.877333,35.2986667 149.664,35 C149.450667,34.7013333 149.344,34.1893333 149.344,33.464 L149.344,33.464 L149.344,16.216 L143.904,16.216 L143.904,34.264 C143.904,36.0346667 144.288,37.32 145.056,38.12 C145.824,38.92 147.061333,39.32 148.768,39.32 Z M168.288,39.32 C169.12,39.32 169.845333,39.1493333 170.464,38.808 L170.464,38.808 L170.88,35.768 C170.624,35.8533333 170.293333,35.896 169.888,35.896 C169.12,35.896 168.736,35.48 168.736,34.648 L168.736,34.648 L168.736,28.824 C168.736,26.776 168.085333,25.24 166.784,24.216 C165.482667,23.192 163.584,22.68 161.088,22.68 C158.954667,22.68 157.258667,23.112 156,23.976 C154.741333,24.84 153.973333,26.0506667 153.696,27.608 L153.696,27.608 L158.112,28.888 C158.261333,28.0133333 158.592,27.384 159.104,27 C159.616,26.616 160.277333,26.424 161.088,26.424 C161.792,26.424 162.346667,26.6373333 162.752,27.064 C163.157333,27.4906667 163.36,28.0666667 163.36,28.792 L163.36,28.792 L163.36,29.368 L159.744,30.072 C157.525333,30.52 155.930667,31.1653333 154.96,32.008 C153.989333,32.8506667 153.504,33.9546667 153.504,35.32 C153.504,36.6213333 153.930667,37.6133333 154.784,38.296 C155.637333,38.9786667 156.864,39.32 158.464,39.32 C161.301333,39.32 163.2,38.4986667 164.16,36.856 C164.608,38.4986667 165.984,39.32 168.288,39.32 Z M160.448,35.8 C159.957333,35.8 159.573333,35.6826667 159.296,35.448 C159.018667,35.2133333 158.88,34.872 158.88,34.424 C158.88,33.976 159.024,33.6293333 159.312,33.384 C159.6,33.1386667 160.085333,32.9306667 160.768,32.76 L160.768,32.76 L163.36,32.152 L163.36,33.528 C163.36,34.2106667 163.061333,34.76 162.464,35.176 C161.866667,35.592 161.194667,35.8 160.448,35.8 Z M178.464,39 L178.464,30.936 C178.464,29.72 178.805333,28.7866667 179.488,28.136 C180.170667,27.4853333 181.024,27.16 182.048,27.16 C182.453333,27.16 182.837333,27.208 183.2,27.304 C183.562667,27.4 183.850667,27.512 184.064,27.64 L184.064,27.64 L184.64,23.032 C184.213333,22.7973333 183.637333,22.68 182.912,22.68 C181.696,22.68 180.677333,23.0053333 179.856,23.656 C179.034667,24.3066667 178.432,25.24 178.048,26.456 L178.048,26.456 L177.824,23 L173.024,23 L173.024,39 L178.464,39 Z M192.224,39 L192.224,35.32 L194.816,32.44 L198.688,39 L204.704,39 L198.464,29.272 L204.352,23 L198.336,23 L192.224,29.72 L192.224,16.216 L186.784,16.216 L186.784,39 L192.224,39 Z" id="Skylark" fill="#FFFFFF" fill-rule="nonzero"></path>
        <g id="Group-Copy">
            <path d="M0,54 C0,44.1581625 7.89838087,36.1613633 17.7023334,36.0024114 L18,36 L63,36 C63,45.8418375 55.1016191,53.8386367 45.2976666,53.9975886 L45,54 L0,54 Z" id="Path" fill="#0D5AF1"></path>
            <path d="M44.9970238,35.6693307 C44.8206843,25.8806616 36.8307917,18 27,18 L27,18 L45,18 C54.94125,18 63,26.05875 63,36 L62.9975886,36.2976666 C62.8402263,46.0035796 55.0009897,53.8418418 45.2946956,53.9976365 L45,54 L45,36 Z" id="Combined-Shape" fill="url(#linearGradient-1)"></path>
            <path d="M27,18 C36.94125,18 45,26.05875 45,36 L27,36 C17.05875,36 9,27.94125 9,18 L9.00297625,17.6693307 C9.17931574,7.88066157 17.1692083,0 27,0 L27,0 L63,0 C63,9.94125 54.94125,18 45,18 L45,18 L27,18 Z" id="Combined-Shape" fill="#0E1825" fill-rule="nonzero"></path>
            <polygon id="Rectangle-Copy-2" fill="url(#linearGradient-2)" opacity="0.300000012" transform="translate(36.000000, 45.000000) scale(-1, -1) translate(-36.000000, -45.000000) " points="27 36 45 54 27 54"></polygon>
        </g>
    </g>
</svg>
